<mxfile host="Electron" modified="2024-05-25T05:01:02.902Z" agent="Mozilla/5.0 (Windows NT 10.0; Win64; x64) AppleWebKit/537.36 (KHTML, like Gecko) draw.io/22.1.18 Chrome/120.0.6099.199 Electron/28.1.2 Safari/537.36" etag="6-i9zAnNYC1FgDxUkwE1" version="22.1.18" type="device">
  <diagram name="第 1 页" id="6N1svrBOfLpJr7WaQpLA">
    <mxGraphModel dx="698" dy="470" grid="1" gridSize="10" guides="1" tooltips="1" connect="1" arrows="1" fold="1" page="1" pageScale="1" pageWidth="827" pageHeight="1169" math="0" shadow="0">
      <root>
        <mxCell id="0" />
        <mxCell id="1" parent="0" />
        <mxCell id="trRMN2qK1XMrPbFPF29j-1" value="" style="endArrow=classic;html=1;rounded=0;" edge="1" parent="1">
          <mxGeometry width="50" height="50" relative="1" as="geometry">
            <mxPoint x="240" y="440" as="sourcePoint" />
            <mxPoint x="760" y="440" as="targetPoint" />
          </mxGeometry>
        </mxCell>
        <mxCell id="trRMN2qK1XMrPbFPF29j-2" value="" style="endArrow=classic;html=1;rounded=0;" edge="1" parent="1">
          <mxGeometry width="50" height="50" relative="1" as="geometry">
            <mxPoint x="280" y="480" as="sourcePoint" />
            <mxPoint x="280" y="80" as="targetPoint" />
          </mxGeometry>
        </mxCell>
        <mxCell id="trRMN2qK1XMrPbFPF29j-3" value="" style="endArrow=none;html=1;rounded=0;curved=1;" edge="1" parent="1">
          <mxGeometry width="50" height="50" relative="1" as="geometry">
            <mxPoint x="360" y="120" as="sourcePoint" />
            <mxPoint x="720" y="400" as="targetPoint" />
            <Array as="points">
              <mxPoint x="490" y="340" />
            </Array>
          </mxGeometry>
        </mxCell>
        <mxCell id="trRMN2qK1XMrPbFPF29j-4" value="" style="endArrow=none;html=1;rounded=0;" edge="1" parent="1">
          <mxGeometry width="50" height="50" relative="1" as="geometry">
            <mxPoint x="540" y="440" as="sourcePoint" />
            <mxPoint x="540" y="120" as="targetPoint" />
          </mxGeometry>
        </mxCell>
        <mxCell id="trRMN2qK1XMrPbFPF29j-6" value="" style="endArrow=none;dashed=1;html=1;rounded=0;" edge="1" parent="1">
          <mxGeometry width="50" height="50" relative="1" as="geometry">
            <mxPoint x="280" y="320" as="sourcePoint" />
            <mxPoint x="540" y="320" as="targetPoint" />
          </mxGeometry>
        </mxCell>
        <mxCell id="trRMN2qK1XMrPbFPF29j-7" value="&lt;font style=&quot;font-size: 18px;&quot;&gt;S&lt;sub&gt;1&lt;/sub&gt;&lt;/font&gt;" style="text;html=1;align=center;verticalAlign=middle;resizable=0;points=[];autosize=1;strokeColor=none;fillColor=none;" vertex="1" parent="1">
          <mxGeometry x="520" y="83" width="40" height="40" as="geometry" />
        </mxCell>
        <mxCell id="trRMN2qK1XMrPbFPF29j-8" value="&lt;font style=&quot;font-size: 18px;&quot;&gt;I(r)&lt;/font&gt;" style="text;html=1;align=center;verticalAlign=middle;resizable=0;points=[];autosize=1;strokeColor=none;fillColor=none;" vertex="1" parent="1">
          <mxGeometry x="685" y="350" width="50" height="40" as="geometry" />
        </mxCell>
        <mxCell id="trRMN2qK1XMrPbFPF29j-9" value="&lt;font style=&quot;font-size: 18px;&quot;&gt;储蓄、投资：S、I&lt;/font&gt;" style="text;html=1;align=center;verticalAlign=middle;resizable=0;points=[];autosize=1;strokeColor=none;fillColor=none;" vertex="1" parent="1">
          <mxGeometry x="590" y="440" width="170" height="40" as="geometry" />
        </mxCell>
        <mxCell id="trRMN2qK1XMrPbFPF29j-10" value="&lt;font style=&quot;font-size: 18px;&quot;&gt;实际利率：r&lt;/font&gt;" style="text;html=1;align=center;verticalAlign=middle;resizable=0;points=[];autosize=1;strokeColor=none;fillColor=none;" vertex="1" parent="1">
          <mxGeometry x="160" y="83" width="120" height="40" as="geometry" />
        </mxCell>
        <mxCell id="trRMN2qK1XMrPbFPF29j-11" value="&lt;font style=&quot;font-size: 18px;&quot;&gt;世界利率：r&lt;sup&gt;*&lt;/sup&gt;&lt;/font&gt;" style="text;html=1;align=center;verticalAlign=middle;resizable=0;points=[];autosize=1;strokeColor=none;fillColor=none;" vertex="1" parent="1">
          <mxGeometry x="155" y="300" width="130" height="40" as="geometry" />
        </mxCell>
        <mxCell id="trRMN2qK1XMrPbFPF29j-15" value="" style="endArrow=none;html=1;rounded=0;" edge="1" parent="1">
          <mxGeometry width="50" height="50" relative="1" as="geometry">
            <mxPoint x="440" y="440" as="sourcePoint" />
            <mxPoint x="440" y="120" as="targetPoint" />
          </mxGeometry>
        </mxCell>
        <mxCell id="trRMN2qK1XMrPbFPF29j-16" value="&lt;font style=&quot;font-size: 18px;&quot;&gt;S&lt;/font&gt;&lt;font style=&quot;font-size: 15px;&quot;&gt;&lt;sub&gt;2&lt;/sub&gt;&lt;/font&gt;" style="text;html=1;align=center;verticalAlign=middle;resizable=0;points=[];autosize=1;strokeColor=none;fillColor=none;" vertex="1" parent="1">
          <mxGeometry x="420" y="83" width="40" height="40" as="geometry" />
        </mxCell>
        <mxCell id="trRMN2qK1XMrPbFPF29j-17" value="" style="endArrow=none;html=1;rounded=0;dashed=1;dashPattern=1 4;endFill=0;" edge="1" parent="1">
          <mxGeometry width="50" height="50" relative="1" as="geometry">
            <mxPoint x="550" y="310" as="sourcePoint" />
            <mxPoint x="590" y="270" as="targetPoint" />
          </mxGeometry>
        </mxCell>
        <mxCell id="trRMN2qK1XMrPbFPF29j-18" value="1. 经济最初的均衡点，&lt;br&gt;此时S&lt;sub&gt;1&lt;/sub&gt; - I(x&lt;sub&gt;1&lt;/sub&gt;) = 0 = NX，&lt;br&gt;即贸易均衡" style="text;html=1;align=center;verticalAlign=middle;resizable=0;points=[];autosize=1;strokeColor=none;fillColor=none;" vertex="1" parent="1">
          <mxGeometry x="555" y="210" width="160" height="60" as="geometry" />
        </mxCell>
        <mxCell id="trRMN2qK1XMrPbFPF29j-19" value="" style="endArrow=classic;html=1;rounded=0;" edge="1" parent="1">
          <mxGeometry width="50" height="50" relative="1" as="geometry">
            <mxPoint x="530" y="160" as="sourcePoint" />
            <mxPoint x="450" y="160" as="targetPoint" />
          </mxGeometry>
        </mxCell>
        <mxCell id="trRMN2qK1XMrPbFPF29j-20" value="2. 扩展性的财政政策导致国民储蓄的下降，国民储蓄从S&lt;sub&gt;2&lt;/sub&gt;减少到了S&lt;sub&gt;1&lt;/sub&gt;；&lt;br&gt;但是因为利率不变，所以投资仍然是I(x&lt;sub&gt;1&lt;/sub&gt;)" style="text;html=1;align=center;verticalAlign=middle;resizable=0;points=[];autosize=1;strokeColor=none;fillColor=none;" vertex="1" parent="1">
          <mxGeometry x="295" y="43" width="400" height="50" as="geometry" />
        </mxCell>
        <mxCell id="trRMN2qK1XMrPbFPF29j-21" value="" style="endArrow=none;html=1;rounded=0;dashed=1;dashPattern=1 4;endFill=0;" edge="1" parent="1">
          <mxGeometry width="50" height="50" relative="1" as="geometry">
            <mxPoint x="490" y="150" as="sourcePoint" />
            <mxPoint x="490" y="90" as="targetPoint" />
          </mxGeometry>
        </mxCell>
        <mxCell id="trRMN2qK1XMrPbFPF29j-22" value="x&lt;sub&gt;1&lt;/sub&gt;" style="text;html=1;strokeColor=none;fillColor=none;align=center;verticalAlign=middle;whiteSpace=wrap;rounded=0;" vertex="1" parent="1">
          <mxGeometry x="510" y="440" width="60" height="30" as="geometry" />
        </mxCell>
        <mxCell id="trRMN2qK1XMrPbFPF29j-23" value="x&lt;span style=&quot;font-size: 10px;&quot;&gt;&lt;sub&gt;2&lt;/sub&gt;&lt;/span&gt;" style="text;html=1;strokeColor=none;fillColor=none;align=center;verticalAlign=middle;whiteSpace=wrap;rounded=0;" vertex="1" parent="1">
          <mxGeometry x="414" y="440" width="60" height="30" as="geometry" />
        </mxCell>
        <mxCell id="trRMN2qK1XMrPbFPF29j-24" value="" style="shape=curlyBracket;whiteSpace=wrap;html=1;rounded=1;labelPosition=left;verticalLabelPosition=middle;align=right;verticalAlign=middle;rotation=-90;" vertex="1" parent="1">
          <mxGeometry x="479" y="290" width="20" height="90" as="geometry" />
        </mxCell>
        <mxCell id="trRMN2qK1XMrPbFPF29j-25" value="3. NX = S&lt;sub&gt;2&lt;/sub&gt; - I(x&lt;sub&gt;1&lt;/sub&gt;) &amp;lt; 0，&lt;br&gt;即出现了贸易赤字" style="text;html=1;align=center;verticalAlign=middle;resizable=0;points=[];autosize=1;strokeColor=none;fillColor=none;" vertex="1" parent="1">
          <mxGeometry x="285" y="390" width="150" height="40" as="geometry" />
        </mxCell>
        <mxCell id="trRMN2qK1XMrPbFPF29j-26" value="" style="endArrow=none;html=1;rounded=0;dashed=1;dashPattern=1 4;endFill=0;" edge="1" parent="1">
          <mxGeometry width="50" height="50" relative="1" as="geometry">
            <mxPoint x="370" y="380" as="sourcePoint" />
            <mxPoint x="490" y="350" as="targetPoint" />
          </mxGeometry>
        </mxCell>
      </root>
    </mxGraphModel>
  </diagram>
</mxfile>
